<svg id="Capa_1" enable-background="new 0 0 512 512" height="512" viewBox="0 0 512 512" width="512" xmlns="http://www.w3.org/2000/svg"><g><g><path d="m512 256c0 141.387-114.613 256-256 256-8.32 0-16.555-.395-24.672-1.184l-230.144-230.133-.011-.011c-.778-8.117-1.173-16.352-1.173-24.672 0-141.387 114.613-256 256-256s256 114.613 256 256z" fill="#654baa"/><g><g><path d="m512 256c0 65.237-24.405 124.779-64.576 169.984-13.472 15.168-28.725 28.715-45.419 40.331-41.418 28.8-91.733 45.685-146.005 45.685-8.331 0-16.576-.395-24.704-1.173l.032-.011-230.155-230.144c-.778-8.117-1.173-16.352-1.173-24.672 0-46.219 12.245-89.568 33.675-126.997 44.128 77.066 127.168 129.002 222.325 129.002s178.208-51.936 222.325-129.003c21.43 37.43 33.675 80.779 33.675 126.998z" fill="#513390"/></g></g></g><g><g><g><path d="m72.229 132.147h1.626c7.203 0 13.042-5.839 13.042-13.042v-1.626h9.297v1.626c0 7.203 5.839 13.042 13.042 13.042h1.626v9.297h-1.626c-7.203 0-13.042 5.839-13.042 13.042v1.626h-9.297v-1.626c0-7.203-5.839-13.042-13.042-13.042h-1.626z" fill="#fff"/></g></g><g><g><path d="m396.883 296.079h1.626c7.203 0 13.042-5.839 13.042-13.042v-1.626h9.297v1.626c0 7.203 5.839 13.042 13.042 13.042h1.626v9.297h-1.626c-7.203 0-13.042 5.839-13.042 13.042v1.626h-9.297v-1.626c0-7.203-5.839-13.042-13.042-13.042h-1.626z" fill="#fff"/></g></g><g><g><path d="m190.681 69.059h1.626c7.203 0 13.042-5.839 13.042-13.042v-1.626h9.297v1.626c0 7.203 5.839 13.042 13.042 13.042h1.626v9.297h-1.626c-7.203 0-13.042 5.839-13.042 13.042v1.626h-9.297v-1.626c0-7.203-5.839-13.042-13.042-13.042h-1.626z" fill="#fff"/></g></g><g><g><path d="m349.796 409.598h1.626c7.203 0 13.042-5.839 13.042-13.042v-1.626h9.297v1.626c0 7.203 5.839 13.042 13.042 13.042h1.626v9.297h-1.626c-7.203 0-13.042 5.839-13.042 13.042v1.626h-9.297v-1.626c0-7.203-5.839-13.042-13.042-13.042h-1.626z" fill="#fff"/></g></g><g><path d="m325.685 357.685c0 8.331-.597 16.491-1.76 24.491-2.165 15.2-6.336 29.76-12.224 43.392-.8 1.888-1.643 3.723-2.517 5.568-8.725 18.358-20.608 34.923-34.955 48.96-1.152 1.131-2.315 2.24-3.499 3.317-11.733 10.891-24.981 20.15-39.403 27.403-27.125-2.581-53.024-9.419-77.013-19.808-51.29-92.476-52.999-204.459-4.557-298.458l3.202-6.214c.448-.021.907-.021 1.355-.021 5.675 0 11.253.277 16.789.832 40.011 3.872 75.957 21.504 103.125 48.128 14.347 14.059 26.251 30.624 34.955 48.971 7.232 15.211 12.288 31.669 14.763 48.96 1.142 7.989 1.739 16.17 1.739 24.479z" fill="#0076ff"/><path d="m9.386 307.575c0 12.877 2.145 25.692 6.638 37.76 9.461 25.414 22.841 48.918 39.411 69.779 7.787 9.792 16.267 19.008 25.376 27.552l44.96 33.781.011.011c9.163 5.419 18.688 10.283 28.533 14.549v-304.692c-36.948 0-71.16 11.693-99.144 31.579-28.942 20.566-45.785 54.176-45.785 89.681z" fill="#0092ff"/><path d="m152.96 191.795c-28.053.576-53.451 13.677-72.064 43.479-8.789 14.059-16.053 30.603-21.408 48.971-3.659 12.597-6.411 26.059-8.107 40.128-.363 2.912-.672 5.856-.917 8.832-.704 8-1.067 16.171-1.067 24.48 0 3.029.053 6.048.16 9.045.149 5.227.448 10.368.907 15.445.992 11.381 2.677 22.4 4.971 32.939-11.808-14.88-22.005-31.093-30.315-48.384l-.011-.032-15.861-42.261-.021-.064c-3.893-14.112-6.624-28.725-8.053-43.701 8.544-16.949 19.808-32.277 33.227-45.397 30.623-29.984 72.404-43.117 118.559-43.48z" fill="#00b9ff"/><path d="m154.316 380.319v43.952h34.92c12.14 0 21.985 9.845 21.985 21.985 0 10.261 4.155 19.547 10.893 26.285 6.72 6.72 16.006 10.875 26.267 10.875h22.346c1.192-1.084 2.348-2.186 3.505-3.324 14.344-14.037 26.23-30.602 34.956-48.956.867-1.843 1.716-3.685 2.511-5.564-2.33-.849-4.841-1.301-7.479-1.301h-24.677c-12.14 0-21.967-9.827-21.967-21.967 0-6.07-2.457-11.561-6.449-15.536-3.974-3.992-9.466-6.449-15.536-6.449z" fill="#00ca7f"/><path d="m132.096 402.304c0 6.07 2.457 11.562 6.449 15.536 3.974 3.974 9.466 6.431 15.536 6.431h.235v-43.952h-.235c-12.139 0-21.985 9.846-21.985 21.985z" fill="#84f600"/><path d="m32.413 237.262h43.736c5.528 0 10.514 2.24 14.127 5.853s5.853 8.599 5.853 14.127c0 12.808 10.387 23.178 23.177 23.178h77.535c11.02 0 19.98-8.943 19.98-19.98v-3.197c0-5.528-2.24-10.514-5.853-14.127-3.631-3.613-8.617-5.853-14.127-5.853s-10.514-2.24-14.127-5.853-5.853-8.599-5.853-14.127c0-10.64-2.041-20.811-5.763-30.132-5.528-.56-11.11-.831-16.782-.831-.452 0-.903 0-1.355.018-46.156.361-87.941 18.95-118.561 48.938-.668.649-1.336 1.317-1.987 1.986z" fill="#00ca7f"/><path d="m50.46 333.205c-.704 8.003-1.066 16.169-1.066 24.478 0 3.035.054 6.052.162 9.051h28.597c11.688 0 21.172-9.484 21.172-21.172 0-11.706-9.484-21.19-21.172-21.19h-26.771c-.362 2.908-.669 5.852-.922 8.833z" fill="#84f600"/><path d="m50.464 333.205c-.704 8-1.067 16.171-1.067 24.48 0 3.029.053 6.048.16 9.045h-24.437c-6.485-13.504-11.829-27.659-15.893-42.357h42.155c-.363 2.912-.673 5.856-.918 8.832z" fill="#adff43"/><path d="m224.805 320.783c0 11.697 9.482 21.178 21.178 21.178h31.169c11.697 0 21.179-9.482 21.179-21.178 0-11.697-9.482-21.178-21.179-21.178h-31.169c-11.696-.001-21.178 9.481-21.178 21.178z" fill="#00ca7f"/><path d="m126.496 470.229c0 2.144-.245 4.235-.715 6.229-16.224-9.611-31.307-20.96-44.971-33.792h18.123c15.222.001 27.563 12.331 27.563 27.563z" fill="#84f600"/><path d="m32.413 237.262h43.736c1.138 0 2.258.09 3.36.289 4.173.705 7.894 2.692 10.767 5.564 3.613 3.613 5.853 8.599 5.853 14.127 0 12.808 10.387 23.178 23.177 23.178h35.01v-94.101c-.452 0-.903 0-1.355.018-46.156.361-87.941 18.95-118.561 48.938-.668.65-1.336 1.318-1.987 1.987z" fill="#84f600"/><path d="m32.413 237.262h43.736c1.138 0 2.258.09 3.36.289.452-.759.921-1.517 1.391-2.276 18.607-29.807 44.006-48.36 72.062-48.938-46.156.361-87.941 18.95-118.561 48.938-.669.65-1.337 1.318-1.988 1.987z" fill="#adff43"/></g><g><g><path d="m365.116 67.772h16.394v134.892h-16.394z" fill="#c8c6cb" transform="matrix(.707 -.707 .707 .707 13.727 303.577)"/><path d="m366.317 70.67h8.197v134.892h-8.197z" fill="#aeadb2" transform="matrix(.707 -.707 .707 .707 10.829 302.376)"/><g><path d="m411.773 70.38-8.456 8.456c-3.486 3.486-3.482 9.135.004 12.62l13.756 13.756c3.482 3.482 9.131 3.486 12.616 0l8.456-8.456c3.486-3.486 3.482-9.135 0-12.617l-13.756-13.756c-3.485-3.485-9.134-3.489-12.62-.003z" fill="#00b9ff"/><path d="m411.773 70.38-8.456 8.456c-3.486 3.486-3.482 9.135.004 12.62l6.876 6.876 21.073-21.072-6.876-6.876c-3.486-3.486-9.135-3.49-12.621-.004z" fill="#0092ff"/><path d="m411.773 70.38-8.456 8.456c-3.486 3.486-3.482 9.135.004 12.62l3.438 3.438c-1.743-1.743-.333-5.979 3.152-9.464l8.456-8.456c3.486-3.486 7.722-4.895 9.464-3.152l-3.438-3.438c-3.485-3.486-9.134-3.49-12.62-.004z" fill="#0076ff"/><path d="m317.197 164.956-8.456 8.456c-3.486 3.486-3.482 9.135.004 12.621l13.756 13.756c3.482 3.482 9.131 3.486 12.617 0l8.456-8.456c3.486-3.486 3.482-9.135 0-12.617l-13.756-13.756c-3.486-3.485-9.135-3.489-12.621-.004z" fill="#c8c6cb"/><path d="m317.197 164.956-8.456 8.456c-3.486 3.486-3.482 9.135.004 12.621l6.876 6.876 21.073-21.073-6.876-6.876c-3.486-3.485-9.135-3.489-12.621-.004z" fill="#aeadb2"/><path d="m317.197 164.956-8.456 8.456c-3.486 3.486-3.482 9.135.004 12.621l3.438 3.438c-1.743-1.743-.333-5.979 3.152-9.464l8.456-8.456c3.486-3.486 7.722-4.895 9.464-3.152l-3.438-3.438c-3.485-3.486-9.134-3.49-12.62-.005z" fill="#99989b"/><path d="m392.297 73.031-26.377 26.377c-4.645 4.645-4.645 12.18 0 16.825l26.376 26.377c4.649 4.649 12.184 4.649 16.829.004l26.377-26.377c4.649-4.649 4.649-12.184 0-16.833l-26.377-26.377c-4.644-4.645-12.179-4.645-16.828.004z" fill="#fff"/><path d="m392.297 73.031-26.377 26.377c-4.645 4.645-4.645 12.18 0 16.825l13.188 13.188 43.205-43.205-13.188-13.188c-4.644-4.646-12.179-4.646-16.828.003z" fill="#eee"/><path d="m392.297 73.031-26.377 26.377c-4.645 4.645-4.645 12.18 0 16.825l6.594 6.594c-2.322-2.322-.441-7.976 4.204-12.621l26.377-26.377c4.649-4.649 10.302-6.531 12.624-4.208l-6.594-6.594c-4.644-4.645-12.179-4.645-16.828.004z" fill="#dddddf"/><path d="m337.499 127.829-26.373 26.373c-4.649 4.649-4.649 12.184-.004 16.829l26.377 26.377c4.649 4.649 12.184 4.649 16.833 0l26.373-26.373c4.649-4.649 4.649-12.184 0-16.833l-26.377-26.377c-4.645-4.645-12.18-4.645-16.829.004z" fill="#fff"/><path d="m337.499 127.829-26.373 26.373c-4.649 4.649-4.649 12.184-.004 16.829l13.188 13.188 43.205-43.205-13.188-13.188c-4.644-4.646-12.179-4.646-16.828.003z" fill="#eee"/><path d="m337.499 127.829-26.377 26.377c-4.645 4.645-4.645 12.18 0 16.825l6.594 6.594c-2.322-2.322-.441-7.976 4.204-12.62l26.377-26.377c4.649-4.649 10.302-6.531 12.625-4.208l-6.594-6.594c-4.645-4.646-12.18-4.646-16.829.003z" fill="#dddddf"/><path d="m364.352 117.801-8.456 8.456c-3.486 3.486-3.482 9.135.004 12.62l13.756 13.756c3.482 3.482 9.131 3.486 12.616 0l8.456-8.456c3.486-3.486 3.482-9.135 0-12.617l-13.756-13.756c-3.485-3.485-9.134-3.489-12.62-.003z" fill="#c8c6cb"/><path d="m364.352 117.801-8.456 8.456c-3.486 3.486-3.482 9.135.004 12.62l6.876 6.876 21.073-21.073-6.876-6.876c-3.486-3.485-9.135-3.489-12.621-.003z" fill="#aeadb2"/><path d="m364.352 117.801-8.456 8.456c-3.486 3.486-3.482 9.135.004 12.62l3.438 3.438c-1.743-1.743-.333-5.979 3.152-9.464l8.456-8.456c3.486-3.486 7.722-4.895 9.464-3.152l-3.438-3.438c-3.485-3.486-9.134-3.49-12.62-.004z" fill="#99989b"/><path d="m337.695 181.794 5.112 5.113c.552.552 1.448.552 2 0l20.656-20.656c.552-.552.552-1.448 0-2.001l-5.113-5.112c-.552-.552-1.448-.552-2.001 0l-20.656 20.656c-.551.552-.551 1.448.002 2z" fill="#fdd425"/><path d="m320.571 164.671 5.113 5.112c.552.553 1.448.553 2 0l20.656-20.656c.552-.552.552-1.448 0-2.001l-5.112-5.113c-.552-.552-1.448-.552-2 0l-20.656 20.656c-.554.553-.554 1.449-.001 2.002z" fill="#feb123"/><path d="m397.234 122.255 5.112 5.112c.552.552 1.448.552 2 0l20.656-20.656c.552-.552.552-1.448 0-2l-5.113-5.113c-.552-.552-1.448-.552-2 0l-20.656 20.656c-.552.553-.552 1.449.001 2.001z" fill="#fdd425"/><path d="m380.11 105.131 5.113 5.112c.552.553 1.448.553 2 0l20.656-20.656c.553-.553.553-1.448 0-2.001l-5.112-5.113c-.552-.552-1.448-.552-2 0l-20.656 20.656c-.554.554-.554 1.45-.001 2.002z" fill="#feb123"/></g></g><g><path d="m446.542 245.329-57.942-57.942c-4.295-4.295-4.295-11.259 0-15.554l21.329-21.329c4.295-4.295 11.259-4.295 15.554 0l57.942 57.942c4.295 4.295 4.295 11.259 0 15.554l-21.329 21.329c-4.295 4.295-11.259 4.295-15.554 0z" fill="#feb123"/><path d="m320.222 119.009-57.942-57.941c-4.295-4.295-4.295-11.259 0-15.554l21.329-21.329c4.295-4.295 11.259-4.295 15.554 0l57.942 57.942c4.295 4.295 4.295 11.259 0 15.554l-21.329 21.329c-4.295 4.294-11.259 4.294-15.554-.001z" fill="#fdd425"/></g><g><path d="m282.937 216.11 23.66-23.66c2.365-2.365 6.2-2.365 8.565 0 2.365 2.365 2.365 6.199 0 8.565l-23.66 23.66c-2.365 2.365-6.2 2.365-8.565 0-2.365-2.365-2.365-6.2 0-8.565z" fill="#eee"/><path d="m318.581 239.766c10.624-14.196 9.486-34.411-3.418-47.315s-33.119-14.042-47.315-3.418z" fill="#dddddf"/><path d="m318.581 239.766c10.624-14.196 9.486-34.411-3.418-47.315-6.453-6.453-21.329-2.253-34.632 9.264z" fill="#eee"/><path d="m318.581 239.766c10.624-14.196 9.486-34.411-3.418-47.315l-21.948 21.948z" fill="#fff"/><path d="m263.62 184.13c1.109-1.109 2.565-1.664 4.02-1.664s2.911.555 4.021 1.666l51.82 51.82c2.22 2.22 2.222 5.821.001 8.042-1.11 1.11-2.565 1.664-4.02 1.664s-2.911-.555-4.021-1.666l-51.82-51.82c-2.22-2.221-2.221-5.821-.001-8.042z" fill="#aeadb2"/><path d="m263.62 184.13c1.109-1.109 2.565-1.664 4.02-1.664s2.911.555 4.021 1.666l25.91 25.91-8.04 8.04-25.91-25.91c-2.22-2.221-2.221-5.821-.001-8.042z" fill="#0092ff"/><path d="m263.62 184.13c1.109-1.109 2.565-1.664 4.02-1.664s2.911.555 4.021 1.666l25.91 25.91-8.04 8.04-25.91-25.91c-2.22-2.221-2.221-5.821-.001-8.042z" fill="#c8c6cb"/></g><g fill="#eee"><path d="m272.521 235.088c-3.967-3.967-6.424-9.444-6.424-15.483 0-2.481 2.011-4.492 4.491-4.492 2.481 0 4.492 2.011 4.492 4.492 0 7.126 5.798 12.925 12.924 12.924 2.481 0 4.491 2.011 4.492 4.492 0 2.48-2.011 4.492-4.491 4.492-6.04-.001-11.517-2.458-15.484-6.425z"/><path d="m260.15 247.459c-8.572-8.572-13.292-19.968-13.292-32.089 0-2.48 2.011-4.491 4.492-4.491 2.481.001 4.492 2.011 4.492 4.492 0 9.721 3.786 18.861 10.661 25.736s16.015 10.661 25.737 10.661c2.481.001 4.492 2.011 4.492 4.492s-2.011 4.491-4.492 4.491c-12.122.001-23.518-4.72-32.09-13.292z"/></g><g fill="#fc9f0b"><g><g><path d="m459.423 204.9h15.446v15.446h-15.446z" transform="matrix(-.707 -.707 .707 -.707 647.121 693.291)"/><path d="m442.995 221.327h15.446v15.446h-15.446z" transform="matrix(-.707 -.707 .707 -.707 607.461 709.719)"/></g><g><path d="m444.143 189.62h15.446v15.446h-15.446z" transform="matrix(-.707 -.707 .707 -.707 631.841 656.403)"/><path d="m427.715 206.047h15.446v15.446h-15.446z" transform="matrix(-.707 -.707 .707 -.707 592.181 672.83)"/></g><g><path d="m428.863 174.34h15.446v15.446h-15.446z" transform="matrix(-.707 -.707 .707 -.707 616.561 619.514)"/><path d="m412.436 190.768h15.446v15.446h-15.446z" transform="matrix(-.707 -.707 .707 -.707 576.901 635.941)"/></g><g><path d="m413.583 159.06h15.446v15.446h-15.446z" transform="matrix(-.707 -.707 .707 -.707 601.281 582.625)"/><path d="m397.156 175.488h15.446v15.446h-15.446z" transform="matrix(-.707 -.707 .707 -.707 561.622 599.053)"/></g></g><g><g><path d="m333.566 79.042h15.446v15.446h-15.446z" transform="matrix(-.707 -.707 .707 -.707 521.263 389.445)"/><path d="m317.138 95.47h15.446v15.446h-15.446z" transform="matrix(-.707 -.707 .707 -.707 481.604 405.872)"/></g><g><path d="m318.286 63.763h15.446v15.446h-15.446z" transform="matrix(-.707 -.707 .707 -.707 505.984 352.556)"/><path d="m301.858 80.19h15.446v15.446h-15.446z" transform="matrix(-.707 -.707 .707 -.707 466.324 368.984)"/></g><g><path d="m303.006 48.483h15.446v15.446h-15.446z" transform="matrix(-.707 -.707 .707 -.707 490.704 315.667)"/><path d="m286.578 64.91h15.446v15.446h-15.446z" transform="matrix(-.707 -.707 .707 -.707 451.044 332.095)"/></g><g><path d="m287.726 33.203h15.446v15.446h-15.446z" transform="matrix(-.707 -.707 .707 -.707 475.424 278.779)"/><path d="m271.298 49.63h15.446v15.446h-15.446z" transform="matrix(-.707 -.707 .707 -.707 435.764 295.206)"/></g></g></g></g></g></g></svg>